Exact Audio Copy V0.99 prebeta 1 from 25. May 2007

EAC 抓取日志文件从30. 十一月 2010, 21:12

宋祖英 / 20世纪中华歌坛名人百集珍藏版

使用驱动器  ：BENQ    DVD-ROM 16X   Adapter: 0  ID: 1

读取模式     : 保护
使用精确流   : 是
废除音频缓冲 : 是
使用 C2 指针 : 否

读取偏移校正                   : 738
读取 Lead-In 和 Lead-Out       : 否
用静音填充抓取中丢失偏移的采样 : 是
去除首尾静音块                 : 否
已用接口                       : 已安装外部 ASPI 接口

所用输出格式 : 内部 WAV 函数
样本格式     : 44.100 Hz;16 Bit;立体声


被抓轨 CD 的 TOC

     音轨 |   开始   |   长度   | 起始扇区 | 结尾扇区 
    --------------------------------------------------
       1  |  0:00.32 |  4:17.38 |      32  |   19344  
       2  |  4:17.70 |  4:59.37 |   19345  |   41806  
       3  |  9:17.32 |  4:43.63 |   41807  |   63094  
       4  | 14:01.20 |  4:03.32 |   63095  |   81351  
       5  | 18:04.52 |  3:33.10 |   81352  |   97336  
       6  | 21:37.62 |  5:00.45 |   97337  |  119881  
       7  | 26:38.32 |  3:18.58 |  119882  |  134789  
       8  | 29:57.15 |  4:51.17 |  134790  |  156631  
       9  | 34:48.32 |  3:48.00 |  156632  |  173731  
      10  | 38:36.32 |  3:35.10 |  173732  |  189866  
      11  | 42:11.42 |  5:59.53 |  189867  |  216844  
      12  | 48:11.20 |  3:39.67 |  216845  |  233336  
      13  | 51:51.12 |  3:58.03 |  233337  |  251189  


范围状态及错误

已选择范围

     文件名 E:\文件夹\20世纪中华歌坛名人百集珍藏版-宋祖英[lwg188原创]\宋祖英 - 20世纪中华歌坛名人百集珍藏版.wav

     峰值电平 100.0 %
     范围质量 99.9 %
     复制 CRC 98105DA0
     复制成功

没有错误发生

状态报告结尾
